<?xml version="1.0" encoding="UTF-8" standalone="no"?>
<!DOCTYPE svg PUBLIC "-//W3C//DTD SVG 1.1//EN"
 "http://www.w3.org/Graphics/SVG/1.1/DTD/svg11.dtd">
<!-- Generated by graphviz version 2.40.1 (20161225.0304)
 -->
<!-- Title: %3 Pages: 1 -->
<svg width="220pt" height="562pt"
 viewBox="0.00 0.00 219.75 561.61" xmlns="http://www.w3.org/2000/svg" xmlns:xlink="http://www.w3.org/1999/xlink">
<g id="graph0" class="graph" transform="scale(1 1) rotate(0) translate(4 557.6123)">
<title>%3</title>
<polygon fill="#ffffff" stroke="transparent" points="-4,4 -4,-557.6123 215.7487,-557.6123 215.7487,4 -4,4"/>
<!-- position -->
<g id="node1" class="node">
<title>position</title>
<polygon fill="#d3d3d3" stroke="#000000" points="46,-216.0574 0,-216.0574 0,-198.0574 46,-198.0574 46,-216.0574"/>
<text text-anchor="middle" x="23" y="-204.8574" font-family="Times,serif" font-size="9.00" fill="#000000">position</text>
</g>
<!-- action2 -->
<g id="node4" class="node">
<title>action2</title>
<ellipse fill="#add8e6" stroke="#000000" cx="86" cy="-30.4056" rx="30.3115" ry="30.3115"/>
<text text-anchor="middle" x="86" y="-28.2056" font-family="Times,serif" font-size="9.00" fill="#000000">action2</text>
</g>
<!-- position&#45;&gt;action2 -->
<g id="edge2" class="edge">
<title>position&#45;&gt;action2</title>
<path fill="none" stroke="#00ff00" stroke-width=".1805" stroke-dasharray="1,5" d="M24.6922,-197.9921C28.4084,-178.8826 38.0754,-133.2282 52,-96.8112 55.9261,-86.5432 60.9862,-75.7844 65.9968,-65.9889"/>
<polygon fill="#00ff00" stroke="#00ff00" stroke-width=".1805" points="69.1979,-67.421 70.7469,-56.94 63,-64.1674 69.1979,-67.421"/>
</g>
<!-- 3187 -->
<g id="node7" class="node">
<title>3187</title>
<ellipse fill="#ffffff" stroke="#000000" cx="86" cy="-121.5599" rx="25" ry="25"/>
<text text-anchor="middle" x="86" y="-119.3599" font-family="Times,serif" font-size="9.00" fill="#000000">3187</text>
</g>
<!-- position&#45;&gt;3187 -->
<g id="edge11" class="edge">
<title>position&#45;&gt;3187</title>
<path fill="none" stroke="#ff0000" stroke-width=".5789" d="M29.7421,-197.9077C38.1217,-186.5357 52.8158,-166.5943 65.0854,-149.9432"/>
<polygon fill="#ff0000" stroke="#ff0000" stroke-width=".5789" points="68.1198,-151.7253 71.2343,-141.5985 62.4845,-147.5728 68.1198,-151.7253"/>
</g>
<!-- velocity -->
<g id="node2" class="node">
<title>velocity</title>
<polygon fill="#d3d3d3" stroke="#000000" points="179.5,-553.6123 134.5,-553.6123 134.5,-535.6123 179.5,-535.6123 179.5,-553.6123"/>
<text text-anchor="middle" x="157" y="-542.4123" font-family="Times,serif" font-size="9.00" fill="#000000">velocity</text>
</g>
<!-- action3 -->
<g id="node5" class="node">
<title>action3</title>
<ellipse fill="#add8e6" stroke="#000000" cx="157" cy="-469.2067" rx="30.3115" ry="30.3115"/>
<text text-anchor="middle" x="157" y="-467.0067" font-family="Times,serif" font-size="9.00" fill="#000000">action3</text>
</g>
<!-- velocity&#45;&gt;action3 -->
<g id="edge1" class="edge">
<title>velocity&#45;&gt;action3</title>
<path fill="none" stroke="#00ff00" stroke-width=".9307" d="M157,-535.3661C157,-528.7696 157,-519.3946 157,-509.7695"/>
<polygon fill="#00ff00" stroke="#00ff00" stroke-width=".9307" points="160.5001,-509.7547 157,-499.7547 153.5001,-509.7548 160.5001,-509.7547"/>
</g>
<!-- action1 -->
<g id="node3" class="node">
<title>action1</title>
<ellipse fill="#add8e6" stroke="#000000" cx="72" cy="-469.2067" rx="30.3115" ry="30.3115"/>
<text text-anchor="middle" x="72" y="-467.0067" font-family="Times,serif" font-size="9.00" fill="#000000">action1</text>
</g>
<!-- 3333 -->
<g id="node6" class="node">
<title>3333</title>
<ellipse fill="#ffffff" stroke="#000000" cx="43" cy="-378.0523" rx="25" ry="25"/>
<text text-anchor="middle" x="43" y="-375.8523" font-family="Times,serif" font-size="9.00" fill="#000000">3333</text>
</g>
<!-- action1&#45;&gt;3333 -->
<g id="edge9" class="edge">
<title>action1&#45;&gt;3333</title>
<path fill="none" stroke="#00ff00" stroke-width=".3" d="M62.7445,-440.1143C59.8473,-431.0076 56.6272,-420.8861 53.6423,-411.5039"/>
<polygon fill="#00ff00" stroke="#00ff00" stroke-width=".3" points="56.8892,-410.1646 50.5222,-401.6964 50.2186,-412.2869 56.8892,-410.1646"/>
</g>
<!-- 2164 -->
<g id="node8" class="node">
<title>2164</title>
<ellipse fill="#ffffff" stroke="#000000" cx="115" cy="-292.5549" rx="25" ry="25"/>
<text text-anchor="middle" x="115" y="-290.3549" font-family="Times,serif" font-size="9.00" fill="#000000">2164</text>
</g>
<!-- action1&#45;&gt;2164 -->
<g id="edge4" class="edge">
<title>action1&#45;&gt;2164</title>
<path fill="none" stroke="#00ff00" stroke-width=".1879" stroke-dasharray="1,5" d="M79.1972,-439.6391C86.7695,-408.5308 98.6739,-359.6256 106.653,-326.846"/>
<polygon fill="#00ff00" stroke="#00ff00" stroke-width=".1879" points="110.1307,-327.3569 109.0952,-316.8128 103.3293,-325.7013 110.1307,-327.3569"/>
</g>
<!-- action3&#45;&gt;2164 -->
<g id="edge5" class="edge">
<title>action3&#45;&gt;2164</title>
<path fill="none" stroke="#00ff00" stroke-width=".2503" stroke-dasharray="1,5" d="M149.8753,-439.2401C142.4627,-408.063 130.8754,-359.3269 123.1149,-326.6861"/>
<polygon fill="#00ff00" stroke="#00ff00" stroke-width=".2503" points="126.4581,-325.6159 120.7399,-316.6967 119.6479,-327.2351 126.4581,-325.6159"/>
</g>
<!-- 3386 -->
<g id="node9" class="node">
<title>3386</title>
<ellipse fill="#ffffff" stroke="#000000" cx="187" cy="-378.0523" rx="25" ry="25"/>
<text text-anchor="middle" x="187" y="-375.8523" font-family="Times,serif" font-size="9.00" fill="#000000">3386</text>
</g>
<!-- action3&#45;&gt;3386 -->
<g id="edge12" class="edge">
<title>action3&#45;&gt;3386</title>
<path fill="none" stroke="#00ff00" stroke-width=".3" d="M166.5747,-440.1143C169.6037,-430.9107 172.9738,-420.6706 176.0892,-411.2047"/>
<polygon fill="#00ff00" stroke="#00ff00" stroke-width=".3" points="179.4168,-412.2894 179.2185,-401.6964 172.7676,-410.101 179.4168,-412.2894"/>
</g>
<!-- 3333&#45;&gt;2164 -->
<g id="edge10" class="edge">
<title>3333&#45;&gt;2164</title>
<path fill="none" stroke="#00ff00" stroke-width=".1756" d="M58.9791,-359.0777C68.7914,-347.426 81.5133,-332.3192 92.3532,-319.4471"/>
<polygon fill="#00ff00" stroke="#00ff00" stroke-width=".1756" points="95.0522,-321.6757 98.8166,-311.7721 89.6979,-317.1667 95.0522,-321.6757"/>
</g>
<!-- 3187&#45;&gt;action2 -->
<g id="edge8" class="edge">
<title>3187&#45;&gt;action2</title>
<path fill="none" stroke="#00ff00" stroke-width=".2041" d="M86,-96.6516C86,-88.771 86,-79.8444 86,-71.1546"/>
<polygon fill="#00ff00" stroke="#00ff00" stroke-width=".2041" points="89.5001,-71.1392 86,-61.1392 82.5001,-71.1392 89.5001,-71.1392"/>
</g>
<!-- 2164&#45;&gt;action2 -->
<g id="edge3" class="edge">
<title>2164&#45;&gt;action2</title>
<path fill="none" stroke="#ff0000" stroke-width=".124" stroke-dasharray="1,5" d="M119.857,-268.263C126.4154,-230.7708 135.5976,-156.8582 120,-96.8112 117.2115,-86.0763 112.4842,-75.0928 107.4272,-65.2282"/>
<polygon fill="#ff0000" stroke="#ff0000" stroke-width=".124" points="110.3608,-63.2945 102.5302,-56.1579 104.2012,-66.6201 110.3608,-63.2945"/>
</g>
<!-- 2331 -->
<g id="node10" class="node">
<title>2331</title>
<ellipse fill="#ffffff" stroke="#000000" cx="89" cy="-207.0574" rx="25" ry="25"/>
<text text-anchor="middle" x="89" y="-204.8574" font-family="Times,serif" font-size="9.00" fill="#000000">2331</text>
</g>
<!-- 2164&#45;&gt;2331 -->
<g id="edge6" class="edge">
<title>2164&#45;&gt;2331</title>
<path fill="none" stroke="#00ff00" stroke-width=".4265" d="M107.7576,-268.7391C105.1093,-260.0305 102.0615,-250.0083 99.2031,-240.6089"/>
<polygon fill="#00ff00" stroke="#00ff00" stroke-width=".4265" points="102.4617,-239.2945 96.2036,-230.7455 95.7646,-241.3312 102.4617,-239.2945"/>
</g>
<!-- 3386&#45;&gt;2164 -->
<g id="edge13" class="edge">
<title>3386&#45;&gt;2164</title>
<path fill="none" stroke="#00ff00" stroke-width=".3816" d="M171.0209,-359.0777C161.2086,-347.426 148.4867,-332.3192 137.6468,-319.4471"/>
<polygon fill="#00ff00" stroke="#00ff00" stroke-width=".3816" points="140.3021,-317.1667 131.1834,-311.7721 134.9478,-321.6757 140.3021,-317.1667"/>
</g>
<!-- 2331&#45;&gt;3187 -->
<g id="edge7" class="edge">
<title>2331&#45;&gt;3187</title>
<path fill="none" stroke="#00ff00" stroke-width=".3655" d="M88.1161,-181.8678C87.8384,-173.9535 87.5266,-165.0675 87.2295,-156.5989"/>
<polygon fill="#00ff00" stroke="#00ff00" stroke-width=".3655" points="90.7262,-156.4406 86.8776,-146.5695 83.7305,-156.6861 90.7262,-156.4406"/>
</g>
</g>
</svg>
